<?xml version="1.0" standalone="no"?>
<!DOCTYPE svg PUBLIC "-//W3C//DTD SVG 20010904//EN"
 "http://www.w3.org/TR/2001/REC-SVG-20010904/DTD/svg10.dtd">
<svg version="1.0" xmlns="http://www.w3.org/2000/svg"
 width="980.000000pt" height="980.000000pt" viewBox="0 0 980.000000 980.000000"
 preserveAspectRatio="xMidYMid meet">

<g transform="translate(0.000000,980.000000) scale(0.100000,-0.100000)"
fill="#000000" stroke="none">
<path d="M4630 9794 c-25 -2 -101 -8 -170 -14 -1359 -115 -2633 -822 -3465
-1922 -550 -726 -871 -1544 -972 -2468 -22 -204 -25 -738 -5 -930 106 -1029
471 -1912 1111 -2689 128 -155 476 -504 631 -632 708 -587 1543 -960 2435
-1088 267 -38 385 -46 710 -46 353 1 515 13 825 66 851 144 1663 522 2335
1088 123 103 397 373 509 501 822 936 1254 2120 1223 3355 -17 650 -146 1247
-397 1826 -607 1403 -1839 2448 -3315 2814 -201 50 -467 97 -685 120 -136 15
-665 28 -770 19z m545 -284 c1454 -88 2761 -840 3572 -2055 966 -1447 1030
-3335 165 -4843 -468 -815 -1168 -1469 -2007 -1873 -1082 -521 -2325 -600
-3466 -219 -787 262 -1465 715 -2022 1350 -986 1124 -1360 2680 -998 4145 227
916 728 1734 1449 2366 905 794 2101 1202 3307 1129z"/>
<path d="M6037 7025 c-157 -26 -338 -96 -482 -187 -334 -211 -556 -605 -567
-1006 l-3 -94 -45 7 c-568 80 -1107 337 -1554 739 -43 39 -130 129 -194 199
-63 70 -128 135 -145 144 -43 22 -134 14 -175 -16 -63 -44 -156 -251 -191
-427 -54 -265 -24 -537 84 -770 l33 -73 -32 -11 c-34 -11 -85 -59 -106 -99
-17 -33 -14 -185 5 -296 41 -236 158 -465 327 -641 l77 -80 -24 -49 c-14 -27
-25 -61 -25 -77 0 -71 102 -294 188 -411 112 -153 263 -282 431 -370 l103 -55
-58 -26 c-104 -48 -286 -106 -409 -131 -188 -38 -318 -48 -526 -40 -201 7
-219 4 -265 -47 -34 -37 -46 -68 -46 -118 0 -85 28 -119 174 -206 633 -376
1378 -522 2133 -418 1214 168 2198 1004 2583 2196 102 315 162 670 162 964 l0
92 85 72 c149 127 373 383 427 489 22 43 23 122 3 160 -32 64 -118 108 -184
95 -17 -4 -31 -4 -31 -2 0 3 13 35 30 71 48 107 64 175 51 223 -14 54 -43 90
-92 114 -66 34 -98 27 -274 -59 -143 -72 -317 -139 -400 -155 -26 -5 -42 3
-120 62 -146 109 -301 181 -485 223 -114 27 -344 33 -463 14z m414 -364 c156
-40 286 -111 405 -222 101 -94 139 -104 274 -70 73 19 74 19 50 0 -108 -83
-126 -113 -118 -200 9 -93 79 -149 184 -149 l58 0 -66 -51 c-92 -70 -102 -95
-100 -239 16 -783 -303 -1575 -858 -2130 -492 -493 -1109 -764 -1842 -810
-339 -21 -687 19 -1008 117 l-114 35 129 33 c294 75 566 203 799 377 97 72
126 114 126 182 0 110 -61 164 -203 178 -256 24 -478 134 -627 309 l-54 64 44
8 c214 38 242 47 284 97 86 103 31 246 -109 284 -220 60 -385 164 -509 320
-74 93 -169 277 -152 293 3 3 46 -2 97 -11 166 -29 235 -19 291 40 75 80 63
186 -28 260 -90 73 -186 169 -229 229 -128 180 -186 396 -164 613 14 136 8
135 116 33 362 -344 840 -617 1320 -756 228 -67 516 -115 694 -118 99 -2 108
0 146 25 57 38 77 84 69 167 -26 276 -16 397 45 551 119 296 388 510 704 560
86 13 257 4 346 -19z"/>
</g>
</svg>
